<svg xmlns="http://www.w3.org/2000/svg" width="1024" height="1024" viewBox="0 0 1024 1024">
  <path fill="#F5EEDF" fill-rule="evenodd" d="
    M244 262 H546 Q622 262 622 338 V522 Q622 598 546 598 H338 L252 668 L266 598 H244 Q168 598 168 522 V338 Q168 262 244 262 Z
    M246 358 H512 Q522 358 522 368 Q522 378 512 378 H246 Q236 378 236 368 Q236 358 246 358 Z
    M246 420 H468 Q478 420 478 430 Q478 440 468 440 H246 Q236 440 236 430 Q236 420 246 420 Z
    M246 482 H404 Q414 482 414 492 Q414 502 404 502 H246 Q236 502 236 492 Q236 482 246 482 Z"/>
</svg>
